<svg width="24" height="24" viewBox="0 0 24 24" fill="none" xmlns="http://www.w3.org/2000/svg">
<path d="M23.3154 14.6289C24.767 8.38124 20.879 2.13975 14.6313 0.688172C8.38364 -0.763409 2.14216 3.1246 0.690576 9.37227C-0.761005 15.6199 3.127 21.8614 9.37468 23.313C15.6224 24.7646 21.8638 20.8766 23.3154 14.6289Z" stroke="white" stroke-miterlimit="10"/>
<path d="M12.0012 1.08257L2.36914 17.7655H21.6332L12.0012 1.08257ZM12.0012 1.08257L2.36914 17.7655H21.6332L12.0012 1.08257Z" stroke="white" stroke-miterlimit="10"/>
<path d="M16.7398 3.89622H7.43848L2.7439 12.1331L7.35064 20.1064H16.7398L21.2561 12.0013L16.7398 3.89622Z" stroke="white" stroke-miterlimit="10"/>
<path d="M7.43848 3.89622L12.2442 12.0013H21.2561" stroke="white" stroke-miterlimit="10"/>
<path d="M7.35059 20.1064L12.2441 12.0013" stroke="white" stroke-miterlimit="10"/>
</svg>
