<svg width="119" height="24" viewBox="0 0 119 24" fill="none" xmlns="http://www.w3.org/2000/svg">
<g clip-path="url(#clip0_19005_182637)">
<path d="M23.3154 14.6289C24.767 8.38124 20.879 2.13975 14.6313 0.688172C8.38364 -0.763409 2.14216 3.1246 0.690576 9.37227C-0.761005 15.6199 3.127 21.8614 9.37468 23.313C15.6224 24.7646 21.8638 20.8766 23.3154 14.6289Z" stroke="white" stroke-miterlimit="10"/>
<path d="M12.0012 1.08257L2.36914 17.7655H21.6332L12.0012 1.08257ZM12.0012 1.08257L2.36914 17.7655H21.6332L12.0012 1.08257Z" stroke="white" stroke-miterlimit="10"/>
<path d="M16.7398 3.89622H7.43848L2.7439 12.1331L7.35064 20.1064H16.7398L21.2561 12.0013L16.7398 3.89622Z" stroke="white" stroke-miterlimit="10"/>
<path d="M7.43848 3.89622L12.2442 12.0013H21.2561" stroke="white" stroke-miterlimit="10"/>
<path d="M7.35059 20.1064L12.2441 12.0013" stroke="white" stroke-miterlimit="10"/>
</g>
<path d="M38.322 18.5C38.106 18.5 37.926 18.428 37.782 18.284C37.65 18.14 37.584 17.966 37.584 17.762V6.62C37.584 6.416 37.65 6.248 37.782 6.116C37.926 5.972 38.1 5.9 38.304 5.9H44.622C44.826 5.9 45 5.966 45.144 6.098C45.288 6.23 45.36 6.398 45.36 6.602C45.36 6.794 45.288 6.956 45.144 7.088C45 7.22 44.826 7.286 44.622 7.286H38.952L39.06 7.142V11.552L38.97 11.354H43.812C44.016 11.354 44.19 11.426 44.334 11.57C44.478 11.702 44.55 11.87 44.55 12.074C44.55 12.254 44.478 12.416 44.334 12.56C44.19 12.692 44.016 12.758 43.812 12.758H38.934L39.06 12.596V17.762C39.06 17.966 38.988 18.14 38.844 18.284C38.7 18.428 38.526 18.5 38.322 18.5ZM58.9615 12.2C58.9615 13.124 58.8115 13.982 58.5115 14.774C58.2115 15.554 57.7915 16.238 57.2515 16.826C56.7115 17.414 56.0695 17.87 55.3255 18.194C54.5815 18.518 53.7715 18.68 52.8955 18.68C52.0075 18.68 51.1915 18.518 50.4475 18.194C49.7155 17.87 49.0795 17.414 48.5395 16.826C47.9995 16.238 47.5795 15.554 47.2795 14.774C46.9795 13.982 46.8295 13.124 46.8295 12.2C46.8295 11.264 46.9795 10.406 47.2795 9.626C47.5795 8.834 47.9995 8.15 48.5395 7.574C49.0795 6.986 49.7155 6.53 50.4475 6.206C51.1915 5.882 52.0075 5.72 52.8955 5.72C53.7715 5.72 54.5815 5.882 55.3255 6.206C56.0695 6.53 56.7115 6.986 57.2515 7.574C57.7915 8.15 58.2115 8.834 58.5115 9.626C58.8115 10.406 58.9615 11.264 58.9615 12.2ZM57.4135 12.2C57.4135 11.216 57.2155 10.346 56.8195 9.59C56.4355 8.834 55.9075 8.24 55.2355 7.808C54.5635 7.376 53.7835 7.16 52.8955 7.16C52.0075 7.16 51.2215 7.376 50.5375 7.808C49.8655 8.24 49.3375 8.834 48.9535 9.59C48.5695 10.346 48.3775 11.216 48.3775 12.2C48.3775 13.172 48.5695 14.042 48.9535 14.81C49.3375 15.566 49.8655 16.16 50.5375 16.592C51.2215 17.024 52.0075 17.24 52.8955 17.24C53.7835 17.24 54.5635 17.024 55.2355 16.592C55.9075 16.16 56.4355 15.566 56.8195 14.81C57.2155 14.042 57.4135 13.172 57.4135 12.2ZM62.1776 18.5C61.9496 18.5 61.7516 18.428 61.5836 18.284C61.4276 18.14 61.3496 17.966 61.3496 17.762V6.62C61.3496 6.416 61.4156 6.248 61.5476 6.116C61.6916 5.972 61.8656 5.9 62.0696 5.9H67.0376C67.7096 5.9 68.3156 6.056 68.8556 6.368C69.3956 6.668 69.8216 7.088 70.1336 7.628C70.4576 8.156 70.6196 8.768 70.6196 9.464C70.6196 9.968 70.5236 10.442 70.3316 10.886C70.1396 11.318 69.8756 11.696 69.5396 12.02C69.2036 12.332 68.8196 12.572 68.3876 12.74L67.9916 12.452C68.3996 12.548 68.7656 12.722 69.0896 12.974C69.4136 13.214 69.6776 13.526 69.8816 13.91C70.0856 14.282 70.1936 14.72 70.2056 15.224C70.2296 15.668 70.2596 16.022 70.2956 16.286C70.3316 16.55 70.3856 16.76 70.4576 16.916C70.5296 17.06 70.6316 17.174 70.7636 17.258C70.9316 17.366 71.0396 17.51 71.0876 17.69C71.1476 17.87 71.1176 18.044 70.9976 18.212C70.9256 18.32 70.8236 18.398 70.6916 18.446C70.5596 18.482 70.4276 18.494 70.2956 18.482C70.1636 18.47 70.0496 18.434 69.9536 18.374C69.7616 18.266 69.5756 18.11 69.3956 17.906C69.2156 17.69 69.0656 17.384 68.9456 16.988C68.8256 16.592 68.7656 16.052 68.7656 15.368C68.7656 14.984 68.7056 14.666 68.5856 14.414C68.4656 14.162 68.3036 13.958 68.0996 13.802C67.8956 13.646 67.6676 13.538 67.4156 13.478C67.1636 13.418 66.9056 13.388 66.6416 13.388H62.6276L62.8436 13.064V17.762C62.8436 17.966 62.7836 18.14 62.6636 18.284C62.5436 18.428 62.3816 18.5 62.1776 18.5ZM62.6276 12.092H67.0376C67.3856 12.068 67.7096 11.948 68.0096 11.732C68.3216 11.516 68.5736 11.216 68.7656 10.832C68.9696 10.436 69.0716 9.992 69.0716 9.5C69.0716 8.864 68.8676 8.336 68.4596 7.916C68.0636 7.496 67.5596 7.286 66.9476 7.286H62.6996L62.8436 6.944V12.416L62.6276 12.092ZM77.156 18.5C76.94 18.5 76.76 18.428 76.616 18.284C76.472 18.14 76.4 17.966 76.4 17.762V6.638H77.93V17.762C77.93 17.966 77.858 18.14 77.714 18.284C77.57 18.428 77.384 18.5 77.156 18.5ZM72.98 7.268C72.776 7.268 72.602 7.208 72.458 7.088C72.326 6.956 72.26 6.788 72.26 6.584C72.26 6.38 72.326 6.218 72.458 6.098C72.602 5.966 72.776 5.9 72.98 5.9H81.35C81.554 5.9 81.728 5.966 81.872 6.098C82.016 6.218 82.088 6.38 82.088 6.584C82.088 6.8 82.016 6.968 81.872 7.088C81.728 7.208 81.554 7.268 81.35 7.268H72.98ZM93.1819 5.882C93.3859 5.882 93.5539 5.954 93.6859 6.098C93.8179 6.242 93.8839 6.416 93.8839 6.62V13.766C93.8839 14.69 93.6679 15.518 93.2359 16.25C92.8159 16.982 92.2459 17.564 91.5259 17.996C90.8059 18.416 89.9899 18.626 89.0779 18.626C88.1539 18.626 87.3259 18.416 86.5939 17.996C85.8739 17.564 85.3039 16.982 84.8839 16.25C84.4639 15.518 84.2539 14.69 84.2539 13.766V6.62C84.2539 6.416 84.3199 6.242 84.4519 6.098C84.5959 5.954 84.7819 5.882 85.0099 5.882C85.2019 5.882 85.3699 5.954 85.5139 6.098C85.6699 6.242 85.7479 6.416 85.7479 6.62V13.766C85.7479 14.426 85.8979 15.014 86.1979 15.53C86.4979 16.046 86.8999 16.454 87.4039 16.754C87.9199 17.042 88.4779 17.186 89.0779 17.186C89.6899 17.186 90.2539 17.042 90.7699 16.754C91.2859 16.454 91.6999 16.046 92.0119 15.53C92.3359 15.014 92.4979 14.426 92.4979 13.766V6.62C92.4979 6.416 92.5579 6.242 92.6779 6.098C92.7979 5.954 92.9659 5.882 93.1819 5.882ZM106.357 5.9C106.561 5.9 106.723 5.966 106.843 6.098C106.963 6.218 107.023 6.374 107.023 6.566V17.744C107.023 17.972 106.951 18.158 106.807 18.302C106.663 18.434 106.489 18.5 106.285 18.5C106.177 18.5 106.069 18.482 105.961 18.446C105.853 18.398 105.769 18.338 105.709 18.266L98.0052 8.078L98.3652 7.862V17.834C98.3652 18.026 98.2992 18.188 98.1672 18.32C98.0472 18.44 97.8852 18.5 97.6812 18.5C97.4892 18.5 97.3332 18.44 97.2132 18.32C97.0932 18.188 97.0332 18.026 97.0332 17.834V6.62C97.0332 6.404 97.0992 6.23 97.2312 6.098C97.3752 5.966 97.5432 5.9 97.7352 5.9C97.8432 5.9 97.9512 5.924 98.0592 5.972C98.1792 6.008 98.2692 6.068 98.3292 6.152L105.925 16.196L105.691 16.484V6.566C105.691 6.374 105.751 6.218 105.871 6.098C106.003 5.966 106.165 5.9 106.357 5.9Z" fill="white"/>
<path d="M110.47 16.196C110.566 16.196 110.668 16.214 110.776 16.25C110.884 16.274 111.004 16.334 111.136 16.43C111.352 16.622 111.61 16.784 111.91 16.916C112.222 17.036 112.576 17.096 112.972 17.096C113.416 17.096 113.83 16.994 114.214 16.79C114.598 16.574 114.91 16.274 115.15 15.89C115.39 15.506 115.51 15.05 115.51 14.522C115.51 13.982 115.396 13.544 115.168 13.208C114.94 12.86 114.646 12.602 114.286 12.434C113.926 12.254 113.548 12.164 113.152 12.164C112.924 12.164 112.732 12.188 112.576 12.236C112.42 12.272 112.27 12.314 112.126 12.362C111.982 12.398 111.826 12.416 111.658 12.416C111.43 12.416 111.25 12.338 111.118 12.182C110.986 12.014 110.92 11.816 110.92 11.588C110.92 11.444 110.95 11.318 111.01 11.21C111.07 11.102 111.154 10.982 111.262 10.85L114.592 7.286L114.988 7.646H110.218C109.978 7.646 109.774 7.568 109.606 7.412C109.45 7.244 109.372 7.04 109.372 6.8C109.372 6.572 109.45 6.38 109.606 6.224C109.774 6.068 109.978 5.99 110.218 5.99H115.906C116.218 5.99 116.446 6.08 116.59 6.26C116.746 6.44 116.824 6.65 116.824 6.89C116.824 7.022 116.788 7.148 116.716 7.268C116.656 7.388 116.578 7.502 116.482 7.61L113.134 11.21L112.684 10.724C112.78 10.676 112.942 10.628 113.17 10.58C113.398 10.532 113.584 10.508 113.728 10.508C114.412 10.508 115.024 10.682 115.564 11.03C116.116 11.378 116.542 11.846 116.842 12.434C117.154 13.01 117.31 13.664 117.31 14.396C117.31 15.272 117.112 16.034 116.716 16.682C116.32 17.318 115.768 17.81 115.06 18.158C114.364 18.506 113.56 18.68 112.648 18.68C112.192 18.68 111.736 18.62 111.28 18.5C110.836 18.368 110.452 18.182 110.128 17.942C109.924 17.822 109.786 17.696 109.714 17.564C109.642 17.42 109.606 17.282 109.606 17.15C109.606 16.922 109.684 16.706 109.84 16.502C110.008 16.298 110.218 16.196 110.47 16.196Z" fill="#F6C749"/>
<defs>
<clipPath id="clip0_19005_182637">
<rect width="24" height="24" fill="white"/>
</clipPath>
</defs>
</svg>
